<svg width="32" height="32" viewBox="0 0 32 32" fill="none" xmlns="http://www.w3.org/2000/svg">
<g clip-path="url(#clip0_87_14)">
<path d="M16 32C24.8366 32 32 24.8366 32 16C32 7.16344 24.8366 0 16 0C7.16344 0 0 7.16344 0 16C0 24.8366 7.16344 32 16 32Z" fill="#1F1F22"/>
<path fill-rule="evenodd" clip-rule="evenodd" d="M22.2466 23.2893C23.736 22.0128 24.7986 20.3107 25.2914 18.412C25.7842 16.5134 25.6836 14.5094 25.003 12.6697C24.3225 10.83 23.0948 9.24286 21.485 8.12197C19.8753 7.00107 17.9608 6.40019 15.9993 6.40019C14.0377 6.40019 12.1233 7.00107 10.5135 8.12197C8.9038 9.24286 7.67605 10.83 6.99554 12.6697C6.31502 14.5094 6.21439 16.5134 6.7072 18.412C7.20001 20.3107 8.2626 22.0128 9.75196 23.2893L7.66796 25.7186C6.26497 24.5179 5.13901 23.0273 4.36766 21.3495C3.59631 19.6717 3.19793 17.8466 3.19996 16C3.19996 12.6052 4.54853 9.34945 6.94899 6.94898C9.34946 4.54852 12.6052 3.19995 16 3.19995C17.6809 3.19995 19.3453 3.53103 20.8983 4.17429C22.4513 4.81755 23.8623 5.76039 25.0509 6.94898C26.2395 8.13757 27.1824 9.54864 27.8256 11.1016C28.4689 12.6546 28.8 14.319 28.8 16C28.802 17.8469 28.4035 19.6723 27.6319 21.3504C26.8603 23.0285 25.734 24.5192 24.3306 25.72L22.2466 23.2893Z" fill="#CDCDCD" fill-opacity="0.1"/>
<path fill-rule="evenodd" clip-rule="evenodd" d="M7.85871 21.088L5.14404 22.7867C5.83319 23.8861 6.68459 24.8751 7.66938 25.72L9.75204 23.2907C9.01317 22.6575 8.37477 21.9157 7.85871 21.0907V21.088Z" fill="#EEEEEE"/>
<path d="M15.6866 13.644L13.704 14.7427V13.364L16 11.9307H17.3213V19.2H15.6866V13.644Z" fill="#EEEEEE"/>
</g>
<defs>
<clipPath id="clip0_87_14">
<rect width="32" height="32" fill="white"/>
</clipPath>
</defs>
</svg>
