<svg width="30" height="30" viewBox="0 0 30 30" fill="none" xmlns="http://www.w3.org/2000/svg">
<g clip-path="url(#clip0_87_80)">
<path d="M15 30C23.2843 30 30 23.2843 30 15C30 6.71573 23.2843 0 15 0C6.71573 0 0 6.71573 0 15C0 23.2843 6.71573 30 15 30Z" fill="#1F1F22"/>
<path fill-rule="evenodd" clip-rule="evenodd" d="M20.8575 21.8337C22.2538 20.637 23.25 19.0413 23.712 17.2613C24.174 15.4814 24.0796 13.6026 23.4417 11.8779C22.8037 10.1531 21.6527 8.66522 20.1435 7.61439C18.6344 6.56355 16.8396 6.00023 15.0006 6.00023C13.1617 6.00023 11.3669 6.56355 9.85774 7.61439C8.34861 8.66522 7.19759 10.1531 6.55961 11.8779C5.92162 13.6026 5.82729 15.4814 6.2893 17.2613C6.7513 19.0413 7.74748 20.637 9.14376 21.8337L7.19001 24.1112C5.87448 22.9857 4.81865 21.5883 4.09529 20.0154C3.37194 18.4424 2.99826 16.7313 3.00001 15C3.00001 11.8174 4.26429 8.76515 6.51472 6.51472C8.76516 4.26428 11.8174 3 15 3C16.5759 3 18.1363 3.31039 19.5922 3.91345C21.0481 4.5165 22.371 5.40042 23.4853 6.51472C24.5996 7.62902 25.4835 8.95189 26.0866 10.4078C26.6896 11.8637 27 13.4241 27 15C27.0019 16.7315 26.6283 18.4429 25.905 20.016C25.1816 21.5892 24.1257 22.9868 22.81 24.1125L20.8575 21.8337Z" fill="#CDCDCD" fill-opacity="0.1"/>
<path fill-rule="evenodd" clip-rule="evenodd" d="M20.8575 21.8337C22.2538 20.637 23.25 19.0413 23.712 17.2613C24.174 15.4814 24.0796 13.6026 23.4417 11.8779C22.8037 10.1531 21.6527 8.66522 20.1435 7.61439C18.6344 6.56355 16.8396 6.00023 15.0006 6.00023C13.1617 6.00023 11.3669 6.56355 9.85774 7.61439C8.34861 8.66522 7.19759 10.1531 6.55961 11.8779C5.92162 13.6026 5.82729 15.4814 6.2893 17.2613C6.7513 19.0413 7.74748 20.637 9.14376 21.8337L7.19001 24.1112C5.87448 22.9857 4.81865 21.5883 4.09529 20.0154C3.37194 18.4424 2.99826 16.7313 3.00001 15C3.00001 11.8174 4.26429 8.76515 6.51472 6.51472C8.76516 4.26428 11.8174 3 15 3C16.5759 3 18.1363 3.31039 19.5922 3.91345C21.0481 4.5165 22.371 5.40042 23.4853 6.51472C24.5996 7.62902 25.4835 8.95189 26.0866 10.4078C26.6896 11.8637 27 13.4241 27 15C27.0019 16.7315 26.6283 18.4429 25.905 20.016C25.1816 21.5892 24.1257 22.9868 22.81 24.1125L20.8575 21.8337Z" fill="#FE1F00"/>
<path d="M11.5412 12.7912L9.6825 13.8212V12.5287L11.835 11.185H13.0737V18H11.5412V12.7912ZM17.285 18.105C16.9775 18.105 16.725 18.0937 16.53 18.0737C16.3132 18.0487 16.0988 18.0065 15.8887 17.9475C15.6777 17.8914 15.4808 17.7913 15.3112 17.6537C15.1472 17.4949 15.0215 17.3008 14.9437 17.0862C14.832 16.8132 14.7784 16.5199 14.7862 16.225V12.96C14.7862 12.6375 14.8362 12.3537 14.9337 12.11C15.014 11.8909 15.1431 11.693 15.3112 11.5312C15.445 11.4125 15.6262 11.3187 15.8575 11.2487C16.0818 11.1729 16.3142 11.1234 16.55 11.1012C16.8162 11.0875 17.0625 11.08 17.285 11.08C17.6 11.08 17.8525 11.0912 18.0412 11.1112C18.2552 11.1306 18.4664 11.1729 18.6712 11.2375C18.9237 11.315 19.1225 11.4162 19.27 11.5425C19.4175 11.6675 19.5425 11.85 19.6475 12.0887C19.7525 12.3262 19.805 12.6162 19.805 12.96V16.225C19.805 16.5475 19.7525 16.8312 19.6475 17.075C19.569 17.2916 19.4395 17.4863 19.27 17.6425C19.0988 17.7776 18.9025 17.8774 18.6925 17.9362C18.455 18.0137 18.2275 18.0587 18.01 18.0737C17.769 18.0967 17.527 18.1071 17.285 18.105ZM17.3062 17.1175C17.6 17.1175 17.81 17.1 17.9362 17.065C17.9923 17.0498 18.0441 17.0222 18.0879 16.9841C18.1316 16.9459 18.1661 16.8984 18.1887 16.845C18.23 16.74 18.2512 16.5687 18.2512 16.33V12.855C18.2512 12.6175 18.23 12.445 18.1887 12.34C18.1669 12.2871 18.1324 12.2403 18.0884 12.2038C18.0445 12.1672 17.9922 12.1418 17.9362 12.13C17.8112 12.0887 17.6 12.0675 17.3062 12.0675C17.0062 12.0675 16.7887 12.0887 16.6562 12.13C16.6003 12.1418 16.548 12.1672 16.504 12.2038C16.4601 12.2403 16.4256 12.2871 16.4037 12.34C16.3612 12.445 16.3412 12.6162 16.3412 12.855V16.33C16.3412 16.5675 16.3612 16.74 16.4037 16.845C16.445 16.95 16.5287 17.0237 16.655 17.065C16.7887 17.1 17.005 17.1175 17.3062 17.1175Z" fill="#FE1F00"/>
</g>
<defs>
<clipPath id="clip0_87_80">
<rect width="30" height="30" fill="white"/>
</clipPath>
</defs>
</svg>
