<svg width="30" height="30" viewBox="0 0 30 30" fill="none" xmlns="http://www.w3.org/2000/svg">
<g clip-path="url(#clip0_87_20)">
<path d="M15 30C23.2843 30 30 23.2843 30 15C30 6.71573 23.2843 0 15 0C6.71573 0 0 6.71573 0 15C0 23.2843 6.71573 30 15 30Z" fill="#1F1F22"/>
<path fill-rule="evenodd" clip-rule="evenodd" d="M20.8563 21.8337C22.2525 20.637 23.2487 19.0413 23.7107 17.2613C24.1727 15.4814 24.0784 13.6026 23.4404 11.8779C22.8024 10.1531 21.6514 8.66522 20.1423 7.61439C18.6331 6.56355 16.8383 6.00023 14.9994 6.00023C13.1604 6.00023 11.3656 6.56355 9.85649 7.61439C8.34736 8.66522 7.19635 10.1531 6.55836 11.8779C5.92038 13.6026 5.82604 15.4814 6.28805 17.2613C6.75005 19.0413 7.74623 20.637 9.14251 21.8337L7.18876 24.1112C5.87346 22.9856 4.81787 21.5881 4.09473 20.0152C3.37159 18.4423 2.9981 16.7312 3.00001 15C3.00001 11.8174 4.26429 8.76515 6.51473 6.51472C8.76516 4.26428 11.8174 3 15 3C16.5759 3 18.1363 3.31039 19.5922 3.91345C21.0481 4.5165 22.371 5.40042 23.4853 6.51472C24.5996 7.62902 25.4835 8.95189 26.0866 10.4078C26.6896 11.8637 27 13.4241 27 15C27.0019 16.7315 26.6283 18.4429 25.905 20.016C25.1816 21.5892 24.1257 22.9868 22.81 24.1125L20.8563 21.8337Z" fill="#CDCDCD" fill-opacity="0.1"/>
<path fill-rule="evenodd" clip-rule="evenodd" d="M6.57126 18.1625L3.76001 19.215C4.47227 21.1098 5.65167 22.794 7.18876 24.1113L9.14251 21.8338C7.98961 20.8458 7.10514 19.5838 6.57126 18.1625Z" fill="#1CE400"/>
<path d="M12.5625 16.4463C12.5625 16.0675 12.6675 15.7388 12.8775 15.4588C13.0893 15.177 13.3717 14.9563 13.6962 14.8188C14.0019 14.6844 14.3139 14.5651 14.6312 14.4613C14.9229 14.3724 15.2015 14.2454 15.46 14.0838C15.6562 13.95 15.7537 13.7925 15.7537 13.6113V12.7388C15.7537 12.5225 15.6662 12.3788 15.4912 12.3088C15.3037 12.2313 15.0087 12.1938 14.61 12.1938C14.1262 12.1938 13.49 12.2813 12.6988 12.4563V11.3C13.4208 11.1505 14.1564 11.0764 14.8937 11.0788C15.7187 11.0788 16.3313 11.205 16.7313 11.4575C17.1363 11.7088 17.34 12.1288 17.34 12.7175V13.6625C17.34 14.0188 17.2313 14.33 17.015 14.5963C16.7976 14.8604 16.5149 15.0629 16.195 15.1838C15.88 15.3175 15.5575 15.4363 15.2287 15.5413C14.9267 15.6398 14.6405 15.7813 14.3788 15.9613C14.1763 16.115 14.0737 16.2988 14.0737 16.5075V16.8538H17.35V17.9988H12.5625V16.4463Z" fill="#1CE400"/>
</g>
<defs>
<clipPath id="clip0_87_20">
<rect width="30" height="30" fill="white"/>
</clipPath>
</defs>
</svg>
