<svg width="30" height="30" viewBox="0 0 30 30" fill="none" xmlns="http://www.w3.org/2000/svg">
<g clip-path="url(#clip0_87_26)">
<path d="M15 30C23.2843 30 30 23.2843 30 15C30 6.71573 23.2843 0 15 0C6.71573 0 0 6.71573 0 15C0 23.2843 6.71573 30 15 30Z" fill="#1F1F22"/>
<path fill-rule="evenodd" clip-rule="evenodd" d="M20.8575 21.8337C22.2538 20.637 23.25 19.0413 23.712 17.2613C24.174 15.4814 24.0796 13.6026 23.4417 11.8779C22.8037 10.1531 21.6527 8.66522 20.1435 7.61439C18.6344 6.56355 16.8396 6.00023 15.0006 6.00023C13.1617 6.00023 11.3669 6.56355 9.85774 7.61439C8.34861 8.66522 7.19759 10.1531 6.55961 11.8779C5.92162 13.6026 5.82729 15.4814 6.2893 17.2613C6.7513 19.0413 7.74748 20.637 9.14376 21.8337L7.19001 24.1112C5.87448 22.9857 4.81865 21.5883 4.09529 20.0154C3.37194 18.4424 2.99826 16.7313 3.00001 15C3.00001 11.8174 4.26429 8.76515 6.51472 6.51472C8.76516 4.26428 11.8174 3 15 3C16.5759 3 18.1363 3.31039 19.5922 3.91345C21.0481 4.5165 22.371 5.40042 23.4853 6.51472C24.5996 7.62902 25.4835 8.95189 26.0866 10.4078C26.6896 11.8637 27 13.4241 27 15C27.0019 16.7315 26.6283 18.4429 25.905 20.016C25.1816 21.5892 24.1257 22.9868 22.81 24.1125L20.8575 21.8337Z" fill="#CDCDCD" fill-opacity="0.1"/>
<path fill-rule="evenodd" clip-rule="evenodd" d="M3.00001 15C2.99808 16.7315 3.37167 18.4429 4.09503 20.016C4.8184 21.5892 5.87432 22.9868 7.19001 24.1125L9.14251 21.8337C8.15599 20.9895 7.36428 19.9414 6.82198 18.7616C6.27967 17.5818 5.99966 16.2985 6.00126 15H3.00001Z" fill="#1CE400"/>
<path d="M14.7375 18.105C14.15 18.105 13.3875 18.0525 12.4487 17.9475V16.7287L12.785 16.7912C12.9175 16.82 12.9912 16.8375 13.005 16.845L13.3625 16.9075C13.4462 16.9212 13.625 16.9425 13.8975 16.97C14.1075 16.9912 14.3212 17.0025 14.5387 17.0025C14.9437 17.0025 15.2237 16.9525 15.3787 16.855C15.5387 16.7575 15.62 16.5712 15.62 16.2987V15.5112C15.62 15.1825 15.2662 15.0175 14.5587 15.0175H13.3212V13.9675H14.5587C15.105 13.9675 15.3787 13.7675 15.3787 13.3687V12.7075C15.3863 12.5892 15.3565 12.4716 15.2937 12.3712C15.2387 12.2875 15.1362 12.2287 14.99 12.1937C14.7826 12.1525 14.5713 12.1349 14.36 12.1412C13.96 12.1412 13.345 12.1825 12.5112 12.2662V11.175C13.4637 11.1125 14.1362 11.08 14.5275 11.08C15.3812 11.08 15.9975 11.1787 16.3762 11.3737C16.7612 11.57 16.9537 11.9162 16.9537 12.4137V13.5375C16.9578 13.73 16.8901 13.9171 16.7637 14.0625C16.6434 14.2035 16.4815 14.3028 16.3012 14.3462C16.9187 14.5625 17.2262 14.9025 17.2262 15.3637V16.4762C17.2262 17.0587 17.0262 17.475 16.6275 17.7262C16.2287 17.9787 15.5987 18.105 14.7375 18.105Z" fill="#1CE400"/>
</g>
<defs>
<clipPath id="clip0_87_26">
<rect width="30" height="30" fill="white"/>
</clipPath>
</defs>
</svg>
