<svg width="30" height="30" viewBox="0 0 30 30" fill="none" xmlns="http://www.w3.org/2000/svg">
<g clip-path="url(#clip0_87_38)">
<path d="M15 30C23.2843 30 30 23.2843 30 15C30 6.71573 23.2843 0 15 0C6.71573 0 0 6.71573 0 15C0 23.2843 6.71573 30 15 30Z" fill="#1F1F22"/>
<path fill-rule="evenodd" clip-rule="evenodd" d="M20.8575 21.8337C22.2538 20.637 23.25 19.0413 23.712 17.2613C24.174 15.4814 24.0796 13.6026 23.4417 11.8779C22.8037 10.1531 21.6527 8.66522 20.1435 7.61439C18.6344 6.56355 16.8396 6.00023 15.0006 6.00023C13.1617 6.00023 11.3669 6.56355 9.85774 7.61439C8.34861 8.66522 7.19759 10.1531 6.55961 11.8779C5.92162 13.6026 5.82729 15.4814 6.2893 17.2613C6.7513 19.0413 7.74748 20.637 9.14376 21.8337L7.19001 24.1112C5.87448 22.9857 4.81865 21.5883 4.09529 20.0154C3.37194 18.4424 2.99826 16.7313 3.00001 15C3.00001 11.8174 4.26429 8.76515 6.51472 6.51472C8.76516 4.26428 11.8174 3 15 3C16.5759 3 18.1363 3.31039 19.5922 3.91345C21.0481 4.5165 22.371 5.40042 23.4853 6.51472C24.5996 7.62902 25.4835 8.95189 26.0866 10.4078C26.6896 11.8637 27 13.4241 27 15C27.0019 16.7315 26.6283 18.4429 25.905 20.016C25.1816 21.5892 24.1257 22.9868 22.81 24.1125L20.8575 21.8337Z" fill="#CDCDCD" fill-opacity="0.1"/>
<path fill-rule="evenodd" clip-rule="evenodd" d="M8.63751 8.63754L6.51376 6.51379C5.39786 7.62706 4.51297 8.94989 3.90996 10.4062C3.30695 11.8626 2.99771 13.4238 3.00001 15C2.99826 16.7314 3.37194 18.4425 4.0953 20.0154C4.81866 21.5884 5.87449 22.9858 7.19001 24.1113L9.14251 21.8338C8.15599 20.9895 7.36429 19.9414 6.82198 18.7616C6.27967 17.5818 5.99967 16.2985 6.00126 15C6.00126 12.515 7.00876 10.265 8.63751 8.63754Z" fill="#FFC800"/>
<path d="M15.3788 16.6251H12.2288V15.4163L15.0325 11.1851H16.765V15.5226H17.5V16.6238H16.765V17.9988H15.3788V16.6238V16.6251ZM15.3788 15.5213V12.6338L13.5413 15.5213H15.3788Z" fill="#FFC800"/>
</g>
<defs>
<clipPath id="clip0_87_38">
<rect width="30" height="30" fill="white"/>
</clipPath>
</defs>
</svg>
