<svg width="30" height="30" viewBox="0 0 30 30" fill="none" xmlns="http://www.w3.org/2000/svg">
<g clip-path="url(#clip0_87_44)">
<path d="M15 30C23.2843 30 30 23.2843 30 15C30 6.71573 23.2843 0 15 0C6.71573 0 0 6.71573 0 15C0 23.2843 6.71573 30 15 30Z" fill="#1F1F22"/>
<path fill-rule="evenodd" clip-rule="evenodd" d="M20.8575 21.8337C22.2538 20.637 23.25 19.0413 23.712 17.2613C24.174 15.4814 24.0796 13.6026 23.4417 11.8779C22.8037 10.1531 21.6527 8.66522 20.1435 7.61439C18.6344 6.56355 16.8396 6.00023 15.0006 6.00023C13.1617 6.00023 11.3669 6.56355 9.85774 7.61439C8.34861 8.66522 7.19759 10.1531 6.55961 11.8779C5.92162 13.6026 5.82729 15.4814 6.2893 17.2613C6.7513 19.0413 7.74748 20.637 9.14376 21.8337L7.19001 24.1112C5.87448 22.9857 4.81865 21.5883 4.09529 20.0154C3.37194 18.4424 2.99826 16.7313 3.00001 15C3.00001 11.8174 4.26429 8.76515 6.51472 6.51472C8.76516 4.26428 11.8174 3 15 3C16.5759 3 18.1363 3.31039 19.5922 3.91345C21.0481 4.5165 22.371 5.40042 23.4853 6.51472C24.5996 7.62902 25.4835 8.95189 26.0866 10.4078C26.6896 11.8637 27 13.4241 27 15C27.0019 16.7315 26.6283 18.4429 25.905 20.016C25.1816 21.5892 24.1257 22.9868 22.81 24.1125L20.8575 21.8337Z" fill="#CDCDCD" fill-opacity="0.1"/>
<path fill-rule="evenodd" clip-rule="evenodd" d="M15 3C11.8174 3 8.76516 4.26428 6.51473 6.51472C4.26429 8.76515 3.00001 11.8174 3.00001 15C2.99808 16.7315 3.37167 18.4429 4.09503 20.016C4.8184 21.5892 5.87432 22.9868 7.19001 24.1125L9.14251 21.8337C7.7461 20.637 6.74983 19.0412 6.28779 17.2612C5.82575 15.4811 5.92011 13.6022 6.55819 11.8774C7.19626 10.1526 8.34741 8.66463 9.8567 7.61383C11.366 6.56303 13.161 5.99982 15 6V3Z" fill="#FFC800"/>
<path d="M14.7687 18.1051C14.2862 18.1051 13.5612 18.0663 12.595 17.9888V16.7188C13.4637 16.8801 14.1175 16.9601 14.5587 16.9601C14.9437 16.9601 15.2237 16.9188 15.3987 16.8351C15.4793 16.7987 15.5472 16.7393 15.5939 16.6643C15.6407 16.5893 15.6641 16.5021 15.6612 16.4138V15.3963C15.6612 15.2063 15.5987 15.0738 15.4725 14.9963C15.3462 14.9126 15.14 14.8713 14.8525 14.8713H12.7525V11.1851H17.0575V12.3613H14.2875V13.7476H15.3575C15.7637 13.7476 16.16 13.8238 16.545 13.9788C16.756 14.0682 16.935 14.2193 17.0586 14.4122C17.1822 14.6052 17.2445 14.831 17.2375 15.0601V16.4876C17.2375 16.7613 17.185 17.0063 17.08 17.2226C16.975 17.4326 16.8425 17.5938 16.68 17.7063C16.5089 17.8252 16.3167 17.9105 16.1137 17.9576C15.8825 18.0201 15.6587 18.0626 15.4425 18.0838C15.2185 18.0969 14.9943 18.104 14.77 18.1051H14.7687Z" fill="#FFC800"/>
</g>
<defs>
<clipPath id="clip0_87_44">
<rect width="30" height="30" fill="white"/>
</clipPath>
</defs>
</svg>
