<svg width="30" height="30" viewBox="0 0 30 30" fill="none" xmlns="http://www.w3.org/2000/svg">
<g clip-path="url(#clip0_87_50)">
<path d="M15 30C23.2843 30 30 23.2843 30 15C30 6.71573 23.2843 0 15 0C6.71573 0 0 6.71573 0 15C0 23.2843 6.71573 30 15 30Z" fill="#1F1F22"/>
<path fill-rule="evenodd" clip-rule="evenodd" d="M20.8575 21.8337C22.2538 20.637 23.25 19.0413 23.712 17.2613C24.174 15.4814 24.0796 13.6026 23.4417 11.8779C22.8037 10.1531 21.6527 8.66522 20.1435 7.61439C18.6344 6.56355 16.8396 6.00023 15.0006 6.00023C13.1617 6.00023 11.3669 6.56355 9.85774 7.61439C8.34861 8.66522 7.19759 10.1531 6.55961 11.8779C5.92162 13.6026 5.82729 15.4814 6.2893 17.2613C6.7513 19.0413 7.74748 20.637 9.14376 21.8337L7.19001 24.1112C5.87448 22.9857 4.81865 21.5883 4.09529 20.0154C3.37194 18.4424 2.99826 16.7313 3.00001 15C3.00001 11.8174 4.26429 8.76515 6.51472 6.51472C8.76516 4.26428 11.8174 3 15 3C16.5759 3 18.1363 3.31039 19.5922 3.91345C21.0481 4.5165 22.371 5.40042 23.4853 6.51472C24.5996 7.62902 25.4835 8.95189 26.0866 10.4078C26.6896 11.8637 27 13.4241 27 15C27.0019 16.7315 26.6283 18.4429 25.905 20.016C25.1816 21.5892 24.1257 22.9868 22.81 24.1125L20.8575 21.8337Z" fill="#CDCDCD" fill-opacity="0.1"/>
<path fill-rule="evenodd" clip-rule="evenodd" d="M19.77 7.36875C17.8449 6.16552 15.5362 5.73424 13.3066 6.16135C11.077 6.58846 9.09109 7.84241 7.74695 9.6719C6.40282 11.5014 5.79973 13.7713 6.05853 16.0266C6.31733 18.282 7.4189 20.3563 9.14251 21.8337L7.19001 24.1112C5.87448 22.9857 4.81865 21.5883 4.09529 20.0154C3.37194 18.4424 2.99826 16.7313 3.00001 15C3.00001 11.8174 4.26429 8.76515 6.51472 6.51472C8.76516 4.26428 11.8174 3 15 3C17.3375 3 19.5163 3.66875 21.3613 4.8225L19.77 7.36875Z" fill="#FFC800"/>
<path d="M14.99 18.105C14.7343 18.1076 14.4785 18.0972 14.2238 18.0737C14.013 18.0492 13.8052 18.0031 13.6038 17.9362C13.3959 17.8756 13.203 17.7721 13.0375 17.6325C12.8792 17.4793 12.7571 17.2926 12.68 17.0862C12.5778 16.8108 12.5277 16.5187 12.5325 16.225V13.0537C12.5325 12.7187 12.5888 12.4212 12.7013 12.1612C12.82 11.8962 12.97 11.6925 13.1525 11.5525C13.3063 11.4337 13.5125 11.3362 13.7725 11.2587C14.0174 11.1776 14.2707 11.1248 14.5275 11.1012C14.7938 11.0875 15.035 11.08 15.2525 11.08C15.5525 11.08 16.1838 11.115 17.1425 11.185V12.31C16.1975 12.1975 15.5225 12.1412 15.1163 12.1412C14.78 12.1412 14.5413 12.1587 14.4025 12.1937C14.2625 12.2287 14.1675 12.2987 14.1188 12.4037C14.0763 12.5012 14.0563 12.6787 14.0563 12.9387V13.7475H15.1788C15.5575 13.7475 15.83 13.7537 15.9975 13.7687C16.1663 13.775 16.355 13.8062 16.565 13.8625C16.79 13.9187 16.9525 14 17.0588 14.1037C17.1713 14.2025 17.2688 14.3537 17.3525 14.5562C17.43 14.7662 17.4675 15.0137 17.4675 15.3012V16.2262C17.4675 16.5475 17.4188 16.8312 17.3213 17.0762C17.2225 17.3137 17.0963 17.4987 16.9425 17.6325C16.8025 17.7575 16.6175 17.86 16.3863 17.9362C16.1697 18.012 15.944 18.0583 15.715 18.0737C15.4741 18.0967 15.2321 18.1071 14.99 18.105ZM15.0113 17.0862C15.3188 17.0862 15.5325 17.0687 15.6513 17.0337C15.7775 16.9987 15.8575 16.9325 15.8925 16.8337C15.9355 16.6588 15.9532 16.4786 15.945 16.2987V15.3112C15.945 15.1437 15.925 15.0237 15.8825 14.955C15.84 14.8775 15.7525 14.825 15.62 14.7975C15.4152 14.7632 15.2076 14.7489 15 14.755H14.055V16.3087C14.055 16.5462 14.0725 16.7187 14.1075 16.8237C14.15 16.9287 14.2338 16.9987 14.36 17.0337C14.4925 17.0687 14.7113 17.0862 15.0113 17.0862Z" fill="#FFC800"/>
</g>
<defs>
<clipPath id="clip0_87_50">
<rect width="30" height="30" fill="white"/>
</clipPath>
</defs>
</svg>
