<svg width="30" height="30" viewBox="0 0 30 30" fill="none" xmlns="http://www.w3.org/2000/svg">
<g clip-path="url(#clip0_87_56)">
<path d="M15 30C23.2843 30 30 23.2843 30 15C30 6.71573 23.2843 0 15 0C6.71573 0 0 6.71573 0 15C0 23.2843 6.71573 30 15 30Z" fill="#1F1F22"/>
<path fill-rule="evenodd" clip-rule="evenodd" d="M20.8575 21.8337C22.2538 20.637 23.25 19.0413 23.712 17.2613C24.174 15.4814 24.0796 13.6026 23.4417 11.8779C22.8037 10.1531 21.6527 8.66522 20.1435 7.61439C18.6344 6.56355 16.8396 6.00023 15.0006 6.00023C13.1617 6.00023 11.3669 6.56355 9.85774 7.61439C8.34861 8.66522 7.19759 10.1531 6.55961 11.8779C5.92162 13.6026 5.82729 15.4814 6.2893 17.2613C6.7513 19.0413 7.74748 20.637 9.14376 21.8337L7.19001 24.1112C5.87448 22.9857 4.81865 21.5883 4.09529 20.0154C3.37194 18.4424 2.99826 16.7313 3.00001 15C3.00001 11.8174 4.26429 8.76515 6.51472 6.51472C8.76516 4.26428 11.8174 3 15 3C16.5759 3 18.1363 3.31039 19.5922 3.91345C21.0481 4.5165 22.371 5.40042 23.4853 6.51472C24.5996 7.62902 25.4835 8.95189 26.0866 10.4078C26.6896 11.8637 27 13.4241 27 15C27.0019 16.7315 26.6283 18.4429 25.905 20.016C25.1816 21.5892 24.1257 22.9868 22.81 24.1125L20.8575 21.8337Z" fill="#CDCDCD" fill-opacity="0.1"/>
<path fill-rule="evenodd" clip-rule="evenodd" d="M22.4175 9.90005C21.6918 8.84575 20.7496 7.95837 19.6537 7.29712C18.5578 6.63587 17.3335 6.21598 16.0624 6.06545C14.7914 5.91493 13.5029 6.03724 12.2829 6.42423C11.0628 6.81121 9.9394 7.45396 8.98751 8.30959C8.03562 9.16522 7.27717 10.214 6.76279 11.3861C6.24841 12.5581 5.98993 13.8263 6.0046 15.1061C6.01927 16.386 6.30675 17.648 6.84786 18.8079C7.38897 19.9678 8.17125 20.999 9.14251 21.8325L7.19001 24.1126C5.87432 22.9869 4.8184 21.5893 4.09503 20.0161C3.37167 18.4429 2.99808 16.7316 3.00001 15C2.99919 12.4387 3.81797 9.9442 5.3366 7.88155C6.85522 5.8189 8.994 4.29628 11.4401 3.53642C13.8862 2.77655 16.5112 2.81931 18.9313 3.65844C21.3513 4.49757 23.4394 6.08903 24.89 8.20005L22.4175 9.90005Z" fill="#FFC800"/>
<path d="M15.6825 12.3826H12.375V11.1851H17.375V12.2351L14.7588 18.0001H13.0587L15.6838 12.3826H15.6825Z" fill="#FFC800"/>
</g>
<defs>
<clipPath id="clip0_87_56">
<rect width="30" height="30" fill="white"/>
</clipPath>
</defs>
</svg>
