<svg width="30" height="30" viewBox="0 0 30 30" fill="none" xmlns="http://www.w3.org/2000/svg">
<g clip-path="url(#clip0_87_68)">
<path d="M15 30C23.2843 30 30 23.2843 30 15C30 6.71573 23.2843 0 15 0C6.71573 0 0 6.71573 0 15C0 23.2843 6.71573 30 15 30Z" fill="#1F1F22"/>
<path fill-rule="evenodd" clip-rule="evenodd" d="M20.8575 21.8337C22.2538 20.637 23.25 19.0413 23.712 17.2613C24.174 15.4814 24.0796 13.6026 23.4417 11.8779C22.8037 10.1531 21.6527 8.66522 20.1435 7.61439C18.6344 6.56355 16.8396 6.00023 15.0006 6.00023C13.1617 6.00023 11.3669 6.56355 9.85774 7.61439C8.34861 8.66522 7.19759 10.1531 6.55961 11.8779C5.92162 13.6026 5.82729 15.4814 6.2893 17.2613C6.7513 19.0413 7.74748 20.637 9.14376 21.8337L7.19001 24.1112C5.87448 22.9857 4.81865 21.5883 4.09529 20.0154C3.37194 18.4424 2.99826 16.7313 3.00001 15C3.00001 11.8174 4.26429 8.76515 6.51472 6.51472C8.76516 4.26428 11.8174 3 15 3C16.5759 3 18.1363 3.31039 19.5922 3.91345C21.0481 4.5165 22.371 5.40042 23.4853 6.51472C24.5996 7.62902 25.4835 8.95189 26.0866 10.4078C26.6896 11.8637 27 13.4241 27 15C27.0019 16.7315 26.6283 18.4429 25.905 20.016C25.1816 21.5892 24.1257 22.9868 22.81 24.1125L20.8575 21.8337Z" fill="#CDCDCD" fill-opacity="0.1"/>
<path fill-rule="evenodd" clip-rule="evenodd" d="M24 15H27C27 11.8174 25.7357 8.76515 23.4853 6.51472C21.2349 4.26428 18.1826 3 15 3C11.8174 3 8.76516 4.26428 6.51473 6.51472C4.26429 8.76515 3.00001 11.8174 3.00001 15C2.99808 16.7315 3.37167 18.4429 4.09503 20.016C4.8184 21.5892 5.87432 22.9868 7.19001 24.1125L9.14251 21.8337C7.99666 20.8515 7.11623 19.5968 6.58222 18.1852C6.0482 16.7736 5.87775 15.2504 6.08655 13.7557C6.29535 12.2609 6.87669 10.8427 7.77708 9.63147C8.67748 8.42023 9.86802 7.45487 11.2392 6.8242C12.6103 6.19354 14.1181 5.91781 15.6237 6.0224C17.1293 6.12699 18.5844 6.60852 19.8552 7.42271C21.126 8.2369 22.1716 9.35759 22.8959 10.6817C23.6202 12.0058 23.9999 13.4908 24 15Z" fill="#FF6309"/>
<path d="M15 18.105C14.0963 18.105 13.435 17.9925 13.015 17.7687C12.6025 17.5437 12.395 17.1562 12.395 16.6037V15.4275C12.395 15.2025 12.5075 14.9937 12.7313 14.7975C12.955 14.6012 13.2213 14.4687 13.5288 14.3975V14.3562C13.2925 14.329 13.0714 14.226 12.8988 14.0625C12.8146 13.9914 12.7466 13.903 12.6996 13.8034C12.6526 13.7037 12.6276 13.5951 12.6263 13.485V12.5087C12.6263 12.0187 12.805 11.6587 13.1613 11.4262C13.525 11.1962 14.1375 11.08 14.9988 11.08C15.86 11.08 16.4688 11.1962 16.8263 11.4262C17.19 11.6575 17.3725 12.0187 17.3725 12.5087V13.4837C17.3712 13.5942 17.3461 13.7031 17.2989 13.803C17.2516 13.9029 17.1834 13.9914 17.0988 14.0625C16.9261 14.226 16.705 14.329 16.4688 14.3562V14.3987C16.7775 14.4687 17.0438 14.6012 17.2675 14.7975C17.4913 14.9937 17.6025 15.2037 17.6025 15.4275V16.6025C17.6025 17.17 17.39 17.5625 16.9625 17.7787C16.535 17.9962 15.8813 18.1037 15 18.1037V18.105ZM15 13.9887C15.3075 13.9887 15.52 13.9462 15.64 13.8637C15.765 13.7712 15.8275 13.6287 15.8275 13.4325V12.645C15.8275 12.4412 15.765 12.2987 15.64 12.2137C15.52 12.1237 15.3075 12.0775 14.9988 12.0775C14.6913 12.0775 14.4738 12.1237 14.3488 12.215C14.2288 12.2987 14.17 12.4412 14.17 12.645V13.4325C14.1652 13.5114 14.1787 13.5904 14.2095 13.6633C14.2403 13.7361 14.2875 13.8009 14.3475 13.8525C14.46 13.9437 14.6775 13.99 14.9988 13.99L15 13.9887ZM15 17.1075C15.3 17.1075 15.5175 17.09 15.65 17.055C15.79 17.02 15.8813 16.96 15.9225 16.8762C15.9725 16.7925 15.9975 16.6587 15.9975 16.4762V15.5537C15.9975 15.35 15.9375 15.2 15.8175 15.1012C15.6988 15.0112 15.43 14.965 15.01 14.965C14.61 14.965 14.3413 15.0112 14.2013 15.1025C14.0675 15.1862 14.0013 15.3362 14.0013 15.5525V16.4775C14.0013 16.6587 14.0225 16.7925 14.0638 16.8775C14.1138 16.96 14.205 17.02 14.3375 17.055C14.4775 17.09 14.6975 17.1075 15 17.1075Z" fill="#FF6309"/>
</g>
<defs>
<clipPath id="clip0_87_68">
<rect width="30" height="30" fill="white"/>
</clipPath>
</defs>
</svg>
