<svg width="30" height="30" viewBox="0 0 30 30" fill="none" xmlns="http://www.w3.org/2000/svg">
<g clip-path="url(#clip0_87_74)">
<path d="M15 30C23.2843 30 30 23.2843 30 15C30 6.71573 23.2843 0 15 0C6.71573 0 0 6.71573 0 15C0 23.2843 6.71573 30 15 30Z" fill="#1F1F22"/>
<path fill-rule="evenodd" clip-rule="evenodd" d="M20.8575 21.8337C22.2538 20.637 23.25 19.0413 23.712 17.2613C24.174 15.4814 24.0796 13.6026 23.4417 11.8779C22.8037 10.1531 21.6527 8.66522 20.1435 7.61439C18.6344 6.56355 16.8396 6.00023 15.0006 6.00023C13.1617 6.00023 11.3669 6.56355 9.85774 7.61439C8.34861 8.66522 7.19759 10.1531 6.55961 11.8779C5.92162 13.6026 5.82729 15.4814 6.2893 17.2613C6.7513 19.0413 7.74748 20.637 9.14376 21.8337L7.19001 24.1112C5.87448 22.9857 4.81865 21.5883 4.09529 20.0154C3.37194 18.4424 2.99826 16.7313 3.00001 15C3.00001 11.8174 4.26429 8.76515 6.51472 6.51472C8.76516 4.26428 11.8174 3 15 3C16.5759 3 18.1363 3.31039 19.5922 3.91345C21.0481 4.5165 22.371 5.40042 23.4853 6.51472C24.5996 7.62902 25.4835 8.95189 26.0866 10.4078C26.6896 11.8637 27 13.4241 27 15C27.0019 16.7315 26.6283 18.4429 25.905 20.016C25.1816 21.5892 24.1257 22.9868 22.81 24.1125L20.8575 21.8337Z" fill="#CDCDCD" fill-opacity="0.1"/>
<path fill-rule="evenodd" clip-rule="evenodd" d="M23.1463 18.8325C23.8603 17.3151 24.1361 15.6283 23.9426 13.9625C23.7491 12.2967 23.0941 10.718 22.0513 9.4046C21.0086 8.09119 19.6196 7.09525 18.041 6.5291C16.4624 5.96296 14.7571 5.84913 13.1173 6.20045C11.4774 6.55178 9.96841 7.35428 8.76034 8.51746C7.55227 9.68064 6.69322 11.1582 6.28008 12.7836C5.86693 14.4089 5.91613 16.1173 6.42212 17.7162C6.92811 19.3151 7.87076 20.7408 9.14376 21.8325L7.18876 24.1125C5.8733 22.9867 4.81761 21.5891 4.09447 20.0159C3.37132 18.4427 2.99792 16.7314 3.00001 15C3.00001 11.8174 4.26429 8.76515 6.51473 6.51472C8.76516 4.26428 11.8174 3 15 3C16.5759 3 18.1363 3.31039 19.5922 3.91345C21.0481 4.5165 22.371 5.40042 23.4853 6.51472C24.5996 7.62902 25.4835 8.95189 26.0866 10.4078C26.6896 11.8637 27 13.4241 27 15C27.0032 16.7669 26.6148 18.5125 25.8625 20.1113L23.1463 18.8325Z" fill="#FF6309"/>
<path d="M14.8 18.105C14.2 18.105 13.5512 18.07 12.8587 18V16.9075C13.755 17.0062 14.395 17.055 14.78 17.055C15.1375 17.055 15.3962 17.03 15.5575 16.9812C15.7175 16.9312 15.8225 16.8412 15.8725 16.7087C15.9275 16.575 15.9562 16.365 15.9562 16.0787V15.4375H14.8225C14.4437 15.4375 14.1712 15.4337 14.0025 15.4275C13.811 15.4091 13.6215 15.374 13.4362 15.3225C13.2542 15.2842 13.0845 15.2013 12.9425 15.0812C12.8132 14.9494 12.7131 14.7918 12.6487 14.6187C12.5672 14.3824 12.5278 14.1336 12.5325 13.8837V12.9587C12.5325 12.6375 12.5825 12.3587 12.68 12.12C12.7775 11.875 12.905 11.6825 13.0575 11.5425C13.1975 11.4237 13.38 11.325 13.6037 11.2487C13.835 11.1712 14.0625 11.1225 14.2862 11.1012C14.5525 11.0875 14.7937 11.08 15.0112 11.08C15.34 11.08 15.5987 11.0912 15.7875 11.1112C15.9837 11.1262 16.19 11.1675 16.4075 11.2375C16.618 11.2992 16.8112 11.4092 16.9718 11.5587C17.1323 11.7082 17.2558 11.8931 17.3325 12.0987C17.4341 12.3743 17.4836 12.6663 17.4787 12.96V16.1312C17.4787 16.8375 17.265 17.345 16.8375 17.6537C16.4175 17.9537 15.7387 18.1037 14.8 18.1037V18.105ZM15.9562 14.4187V12.825C15.9562 12.5875 15.935 12.4225 15.8937 12.3312C15.8575 12.24 15.7775 12.1812 15.6512 12.1525C15.4327 12.1169 15.2112 12.1026 14.99 12.11C14.7786 12.1021 14.5671 12.1198 14.36 12.1625C14.3072 12.1718 14.2576 12.194 14.2155 12.2272C14.1734 12.2603 14.1402 12.3034 14.1187 12.3525C14.0762 12.4425 14.0562 12.6 14.0562 12.825V13.8637C14.0562 14.0325 14.0762 14.155 14.1187 14.2312C14.16 14.3012 14.2437 14.35 14.37 14.3787C14.5782 14.4121 14.7891 14.4259 15 14.42H15.9562V14.4187Z" fill="#FF6309"/>
</g>
<defs>
<clipPath id="clip0_87_74">
<rect width="30" height="30" fill="white"/>
</clipPath>
</defs>
</svg>
